<svg xmlns="http://www.w3.org/2000/svg" version="1.1" xmlns:xlink="http://www.w3.org/1999/xlink" width="75" height="75" x="0" y="0" viewBox="0 0 512 512" style="enable-background:new 0 0 512 512" xml:space="preserve" class="">
  <g>
    <path d="M451 378.5c8.284 0 15-6.716 15-15v-75c0-35.145-20.252-65.644-49.696-80.455 6.089-8.284 9.696-18.499 9.696-29.545 0-27.57-22.43-50-50-50s-50 22.43-50 50c0 11.034 3.6 21.239 9.676 29.518a89.183 89.183 0 0 0-11.441 6.864 90.595 90.595 0 0 0-26.216-20.949C306.11 184.354 311 171.99 311 158.5c0-30.327-24.673-55-55-55s-55 24.673-55 55c0 13.49 4.89 25.854 12.98 35.433a90.603 90.603 0 0 0-26.214 20.946 89.465 89.465 0 0 0-11.448-6.854c6.08-8.28 9.681-18.488 9.681-29.525 0-27.57-22.43-50-50-50s-50 22.43-50 50c0 11.046 3.607 21.262 9.696 29.545C66.252 222.856 46 253.355 46 288.5v75c0 8.284 6.716 15 15 15h105v15c0 8.284 6.716 15 15 15h150c8.284 0 15-6.716 15-15v-15zm-95-200c0-11.028 8.972-20 20-20s20 8.972 20 20-8.972 20-20 20-20-8.972-20-20zm20 50c33.084 0 60 26.916 60 60v60h-90v-75c0-11.584-2.201-22.663-6.205-32.843 10.37-7.881 22.956-12.157 36.205-12.157zm-145-70c0-13.785 11.215-25 25-25s25 11.215 25 25-11.215 25-25 25-25-11.215-25-25zm-115 20c0-11.028 8.972-20 20-20s20 8.972 20 20-8.972 20-20 20-20-8.972-20-20zm-40 170v-60c0-33.084 26.916-60 60-60 13.212 0 25.824 4.287 36.202 12.165C168.2 250.843 166 261.919 166 273.5v75zm240 30H196v-105c0-33.084 26.916-60 60-60s60 26.916 60 60zM497 371c-8.284 0-15 6.716-15 15v76h-76c-8.284 0-15 6.716-15 15s6.716 15 15 15h91c8.284 0 15-6.716 15-15v-91c0-8.284-6.716-15-15-15zM106 462H30v-76c0-8.284-6.716-15-15-15s-15 6.716-15 15v91c0 8.284 6.716 15 15 15h91c8.284 0 15-6.716 15-15s-6.716-15-15-15zM15 141c8.284 0 15-6.716 15-15V50h76c8.284 0 15-6.716 15-15s-6.716-15-15-15H15C6.716 20 0 26.716 0 35v91c0 8.284 6.716 15 15 15zM497 20h-92c-8.284 0-15 6.716-15 15s6.716 15 15 15h77v76c0 8.284 6.716 15 15 15s15-6.716 15-15V35c0-8.284-6.716-15-15-15z" fill="#001049" opacity="1" data-original="#000000" class=""></path>
  </g>
</svg>