<svg xmlns="http://www.w3.org/2000/svg" version="1.1" xmlns:xlink="http://www.w3.org/1999/xlink" width="75" height="75" x="0" y="0" viewBox="0 0 32 32" style="enable-background:new 0 0 512 512" xml:space="preserve" class="">
  <g>
    <path d="M10 10H6c-.6 0-1 .4-1 1s.4 1 1 1h4c.6 0 1-.4 1-1s-.4-1-1-1zM10 13H6c-.6 0-1 .4-1 1s.4 1 1 1h4c.6 0 1-.4 1-1s-.4-1-1-1zM18.4 23.1c-.5-.2-1.1 0-1.3.4l-.4.8c-.4-.4-1-.4-1.4 0s-.4 1 0 1.4l1 1c.2.2.4.3.7.3h.2c.3-.1.6-.3.7-.5l1-2c.2-.5 0-1.1-.5-1.4zM26.4 15.1c-.5-.2-1.1 0-1.3.4l-.4.8c-.4-.4-1-.4-1.4 0s-.4 1 0 1.4l1 1c.2.2.4.3.7.3h.2c.3-.1.6-.3.7-.5l1-2c.2-.5 0-1.1-.5-1.4zM18.4 17l.3-.3c.4-.4.4-1 0-1.4s-1-.4-1.4 0l-.3.3-.3-.3c-.4-.4-1-.4-1.4 0s-.4 1 0 1.4l.3.3-.3.3c-.4.4-.4 1 0 1.4.2.2.5.3.7.3s.5-.1.7-.3l.3-.3.3.3c.2.2.5.3.7.3s.5-.1.7-.3c.4-.4.4-1 0-1.4zM23.6 25l-.3.3c-.4.4-.4 1 0 1.4.2.2.5.3.7.3s.5-.1.7-.3l.3-.3.3.3c.2.2.5.3.7.3s.5-.1.7-.3c.4-.4.4-1 0-1.4l-.3-.3.3-.3c.4-.4.4-1 0-1.4s-1-.4-1.4 0l-.3.3-.3-.3c-.4-.4-1-.4-1.4 0s-.4 1 0 1.4z" fill="#001049" opacity="1" data-original="#000000" class=""></path>
    <path d="M29 7H14V6c0-.3-.1-.5-.3-.7l-3-3c-.2-.2-.4-.3-.7-.3H3c-.6 0-1 .4-1 1v14c0 .6.4 1 1 1h4v11c0 .6.4 1 1 1h21c.6 0 1-.4 1-1V8c0-.6-.4-1-1-1zM14 17v-3h6v6h-6zm8-3h6v6h-6zm6-5v3h-6V9zm-8 0v3h-6V9zm-8.4-3H10V4.4zM4 16V4h4v3c0 .6.4 1 1 1h3v8zm8 2v2H9v-2zM9 28v-6h3v6zm5 0v-6h6v6zm14 0h-6v-6h6z" fill="#001049" opacity="1" data-original="#000000" class=""></path>
  </g>
</svg>